<?xml version="1.0" encoding="UTF-8" standalone="no"?><!DOCTYPE svg PUBLIC "-//W3C//DTD SVG 1.1//EN" "http://www.w3.org/Graphics/SVG/1.1/DTD/svg11.dtd"><svg width="100%" height="100%" viewBox="0 0 42 31" version="1.1" xmlns="http://www.w3.org/2000/svg" xmlns:xlink="http://www.w3.org/1999/xlink" xml:space="preserve" xmlns:serif="http://www.serif.com/" style="fill-rule:evenodd;clip-rule:evenodd;stroke-linejoin:round;stroke-miterlimit:2;"><g><path d="M10.26,0.061l-10.199,0l0,10.199l-0.061,0l0,-10.26l10.26,0l0,0.061Z" style="fill:#fff;fill-opacity:0.05;"/></g><g><path d="M10.26,10.321l-10.199,0l0,10.199l-0.061,0l0,-10.26l10.26,0l0,0.061Z" style="fill:#fff;fill-opacity:0.05;"/></g><g><path d="M10.26,20.581l-10.199,0l0,10.199l-0.061,0l0,-10.26l10.26,0l0,0.061Z" style="fill:#fff;fill-opacity:0.05;"/></g><g><path d="M30.78,0.061l-10.199,0l0,10.199l-0.061,0l0,-10.26l10.26,0l0,0.061Z" style="fill:#fff;fill-opacity:0.05;"/></g><g><path d="M30.78,10.321l-10.199,0l0,10.199l-0.061,0l0,-10.26l10.26,0l0,0.061Z" style="fill:#fff;fill-opacity:0.05;"/></g><g><path d="M30.78,20.581l-10.199,0l0,10.199l-0.061,0l0,-10.26l10.26,0l0,0.061Z" style="fill:#fff;fill-opacity:0.05;"/></g><g><path d="M20.52,0.061l-10.199,0l0,10.199l-0.061,0l0,-10.26l10.26,0l0,0.061Z" style="fill:#fff;fill-opacity:0.05;"/></g><g><path d="M20.52,10.321l-10.199,0l0,10.199l-0.061,0l0,-10.26l10.26,0l0,0.061Z" style="fill:#fff;fill-opacity:0.05;"/></g><g><path d="M20.52,20.581l-10.199,0l0,10.199l-0.061,0l0,-10.26l10.26,0l0,0.061Z" style="fill:#fff;fill-opacity:0.05;"/></g><g><path d="M41.04,0.061l-10.199,0l0,10.199l-0.061,0l0,-10.26l10.26,0l0,0.061Z" style="fill:#fff;fill-opacity:0.05;"/></g><g><path d="M41.04,10.321l-10.199,0l0,10.199l-0.061,0l0,-10.26l10.26,0l0,0.061Z" style="fill:#fff;fill-opacity:0.05;"/></g><g><path d="M41.04,20.581l-10.199,0l0,10.199l-0.061,0l0,-10.26l10.26,0l0,0.061Z" style="fill:#fff;fill-opacity:0.05;"/></g></svg>
